<?xml version="1.0" encoding="UTF-8"?>
<!DOCTYPE svg PUBLIC "-//W3C//DTD SVG 1.1//EN" "http://www.w3.org/Graphics/SVG/1.1/DTD/svg11.dtd">
<!-- Creator: CorelDRAW -->
<svg xmlns="http://www.w3.org/2000/svg" xml:space="preserve" width="0.853331in" height="0.426661in" version="1.1" style="shape-rendering:geometricPrecision; text-rendering:geometricPrecision; image-rendering:optimizeQuality; fill-rule:evenodd; clip-rule:evenodd"
viewBox="0 0 853.33 426.66"
 xmlns:xlink="http://www.w3.org/1999/xlink"
 xmlns:xodm="http://www.corel.com/coreldraw/odm/2003">
 <defs>
  <style type="text/css">
   <![CDATA[
    .fil0 {fill:#013659}
   ]]>
  </style>
 </defs>
 <g id="Layer_x0020_1">
  <metadata id="CorelCorpID_0Corel-Layer"/>
  <path class="fil0" d="M232.43 194.89c10.74,0 12.74,1.29 12.74,15.28l0 49.67 -1.91 17.19c-6.5,1.57 -4.15,1.28 -10.83,1.28l0 3.82 11.46 0c3.41,-0.25 4.09,-1.07 8.92,-0.63 6.52,0.58 2.31,0.81 10.83,0.63l0 -3.82c-3.56,-0.85 -3.75,-0.23 -10.83,-1.91 -0.78,-8.72 -1.28,-3.63 -1.28,-15.92l0 -53.49c2.83,1.85 44.06,53.72 51.09,61.62 7.8,8.75 9.6,14.78 22.78,14.8 0,-6 -0.64,-7.63 -0.64,-10.19l0 -13.37c0,-3.21 -0.63,-4.04 -0.63,-7.01l0.76 -31.82c1.24,-22.18 -5.24,-26.13 11.98,-26.13l0 -3.82c-6.39,0 -14.57,0.96 -18.46,0.63 -7.7,-0.65 -3.42,-0.78 -13.37,-0.63l0 3.82c12.63,3.01 12.81,-2.62 12.74,19.11 -0.02,4.1 0.55,6.65 0.66,10.17 0.42,13.94 -0.02,28.66 -0.02,42.69 -3.93,-2.58 -12.6,-14.09 -16.12,-18.27l-46.9 -57.53c-3.72,0.04 -6.33,0.61 -9.57,0.7l-13.37 -0.68 0 3.82 0 -0z"/>
  <path class="fil0" d="M396.65 115.35c0.34,13.76 -19.8,37.82 -30.05,27.5 -4.09,-4.12 -6.21,-21.68 15.74,-26.04 3.42,-0.68 10.69,-1.63 14.31,-1.47l0 0zm-25.42 -14.06c-0.61,-2.4 -6.4,-9.68 -2.3,-16.33 2.39,-3.89 7,-4.57 11.03,-4.9 6.89,-0.57 14.15,2.46 16.95,9.55 2.47,6.23 0.44,14 0.43,20.58 -10.04,0 -25.2,2.27 -33.88,7.51 -27.8,16.8 -8.96,48.23 13.31,36.23 12.33,-6.64 12.22,-13.68 19.94,-22.09 0,9.83 -0.32,18.5 10.18,22.93 6.79,2.87 21.04,-0.2 24.08,-6.72l-1.3 -2.13c-5.81,0.83 -11.6,7.06 -17.81,-1.23 -9.18,-12.25 7.31,-53.09 -6.7,-66.54 -13.09,-12.57 -50.36,-0.66 -49.91,16.74 0.2,7.79 11.07,11.3 15.96,6.38l0 0z"/>
  <path class="fil0" d="M170.89 208.32l16.21 37.56 -31.72 -0.05 15.5 -37.51zm-46.07 73.8c5.59,0 9.95,-0.65 15.28,-0.64 5.46,0.01 9.7,0.64 15.29,0.64l0 -3.82c-13.4,-3.23 -14.79,3.67 -4.91,-21.47 0.81,-2.06 1.52,-4.23 3,-5.91l35.66 0c1.98,3.91 9.48,22.08 9.39,25.31 -2.73,2.16 -3.44,1.36 -6.86,1.42 -4.9,0.09 -4.44,0.54 -4.44,4.48 2.96,0 5.98,0.06 8.94,0.02 3.26,-0.04 4.82,-0.67 8.23,-0.68 6.28,-0.02 11.44,0.66 17.85,0.66l0 -3.82c-9.98,-2.4 -6.93,1.28 -15.3,-17.81 -9.48,-21.6 -19.55,-46.95 -29.04,-67.75l-1.51 -2.95 -4.3 0.06c-1.84,2.54 -8.46,19.8 -10.36,24.13l-21.45 48.6c-1.61,3.76 -3.87,7.77 -5.68,11.52 -1.6,3.31 -1.62,3.26 -5.29,3.62 -5.15,0.52 -4.5,-0.07 -4.5,4.41l0 0z"/>
  <path class="fil0" d="M691.77 208.32l16.21 37.56 -31.72 -0.05 15.51 -37.51 0 0zm-46.07 73.8c5.59,0 9.95,-0.65 15.28,-0.64 5.46,0.01 9.7,0.64 15.28,0.64l0 -3.82c-13.4,-3.23 -14.79,3.67 -4.91,-21.47l1.94 -4.43c0.77,-1.29 0.48,-0.82 1.07,-1.48l35.66 0c1.98,3.91 9.48,22.08 9.39,25.31 -5.79,4.58 -11.3,-3.03 -11.3,5.9l17.17 -0.66c6.28,-0.02 11.44,0.66 17.85,0.66l0 -3.82c-9.98,-2.41 -6.93,1.28 -15.3,-17.81l-16.21 -37.59 -14.11 -32.7c-0.04,-0.08 -0.14,-0.28 -0.23,-0.41l-4.3 0.06c-1.84,2.54 -8.47,19.8 -10.36,24.13 -9.1,20.78 -17.27,39.71 -27.13,60.11 -4.13,8.54 -9.79,-1.48 -9.79,8.04l-0 -0z"/>
  <path class="fil0" d="M445.82 108.85c-0.31,-6.91 4.08,-16.8 8.19,-22.24 9.35,-12.37 28.57,-6.25 24.6,8.68 -2.67,10.03 -25.62,13.9 -32.79,13.56l0 0zm-0.62 6.02c3.63,-2.45 28.07,-2.67 40.03,-11.05 13.11,-9.2 11.39,-24.69 -3.73,-29.39 -12.67,-3.93 -28.5,1.53 -36.75,11.83 -9.38,11.71 -13.31,22.84 -13.03,37.97 0.59,31.33 36.59,43.66 57.18,20.18 1.77,-2.02 5.66,-5.25 2.61,-7.42 -3.95,-2.82 -10.3,12.67 -26.96,9.15 -14.7,-3.11 -20.66,-23.38 -19.34,-31.28l-0 0z"/>
  <path class="fil0" d="M347.13 196.78l-0.08 15.3 4.46 0c0.24,-2.7 0.78,-12.67 3.02,-14.17 1.79,-1.2 20.87,-1.11 23.72,-1.11 0,6.61 0.48,5.96 0.76,10.81l-0.12 53.51c0,2.8 -0.51,3.1 -0.64,5.73 -0.1,2.07 0.18,4.19 -0.13,6.24 -0.95,6.26 -5.69,5.22 -12.61,5.22l0 3.82c7.15,0 18.68,-1.03 23.56,-0.64 8.52,0.69 4.75,0.76 15.28,0.64l0 -3.82c-12.89,0 -12.74,0.05 -12.74,-12.1 0,-3.21 -0.63,-4.04 -0.63,-7l0.83 -61.96c9.43,-1.37 10.27,0.35 18.91,0.19 8.94,-0.17 4.48,4.19 7,14.65l4.46 0 0 -8.92c0,-3.27 1.2,-8.74 1.28,-12.1l-24.85 -0.02c-3.31,0 -4.69,0.66 -7.62,0.66l-10.19 0c-2.94,0 -4.3,-0.65 -7.62,-0.66l-26.77 0.02 0.72 5.72 0 0z"/>
  <path class="fil0" d="M562.28 194.89c13.69,0 12.74,-0.42 12.74,14.01 0,3.21 0.64,4.04 0.64,7l0 40.12c-0.42,7.02 -0.72,3.6 -0.64,12.74 0,2.62 -0.09,5.8 -2.04,7.51 -3.76,3.3 -4.32,-0.42 -4.32,5.86l10.19 0c4.72,-0.35 6.11,-1.22 13.37,-0.63l5.07 0.75c2.94,0.21 35.2,0.36 36.95,-1.39 0.57,-1.23 2.55,-19.98 2.55,-22.29l-4.46 0 -4.64 15.09 -3.99 1.11c-5.97,1.05 -22.98,2.02 -28.3,1.63 -3.73,-0.28 -2.6,-0.87 -7.64,-0.64 0,-7.83 -0.85,-76.43 1.07,-79.17 1.59,-2.28 9.59,-1.7 12.31,-1.7l0 -3.82c-10,0 -7.51,0.29 -14.63,0.75 -5.48,0.36 -8.7,-0.63 -12.1,-0.87l-12.12 0.12 0 3.82 -0 0z"/>
  <path class="fil0" d="M481.41 194.89c13.68,0 12.74,-0.42 12.74,14.01 0,3.21 0.63,4.04 0.63,7l0 40.12c-0.42,7.02 -0.72,3.6 -0.63,12.74 0,2.62 -0.09,5.8 -2.05,7.51 -3.76,3.3 -4.32,-0.42 -4.32,5.86l10.19 0c4.72,-0.35 6.11,-1.22 13.37,-0.63l5.07 0.75c2.94,0.21 35.2,0.36 36.96,-1.39 0.56,-1.23 2.55,-19.98 2.54,-22.29l-4.46 0 -3.69 14.64c-0.31,0.05 -0.5,0.03 -0.57,0.21 -0.3,0.92 -9.19,2.19 -9.84,2.26l-22.84 0.72c-3.73,-0.28 -2.6,-0.87 -7.64,-0.63 0,-7.83 -0.85,-76.43 1.07,-79.17 1.59,-2.27 9.59,-1.7 12.31,-1.7l0 -3.82c-10,0 -7.51,0.29 -14.63,0.75 -5.48,0.36 -8.7,-0.63 -12.1,-0.87l-12.12 0.12 0 3.82 0 0z"/>
  <path class="fil0" d="M433.65 194.89c2.88,0 5.23,-0.21 7.83,0.44 2.87,0.72 3.69,1.37 4.44,9.08 0.2,2.06 0.66,67.67 -1.42,71.38 -1.56,2.79 -7.85,2.51 -10.86,2.51l0 3.82c7.89,0 18.18,-1.12 24.2,-0.64 7.24,0.58 2.91,0.79 12.74,0.64l0 -3.82c-3.17,0 -9.72,0.37 -11.07,-2.93 -1.51,-3.69 -1.88,-74 -0,-78.19 1.26,-2.82 7.89,-2.3 11.07,-2.3l0 -3.82c-8.12,0 -14.07,1.24 -21.65,0.63 -8.49,-0.68 -4.74,-0.76 -15.28,-0.63l0 3.82 0 0z"/>
  <path class="fil0" d="M432.21 331.32l4.13 9.33 -8.43 0.06 4.3 -9.39zm-14.48 20.85l10.82 0c-0.34,-3.07 -0.69,-1.59 -3.24,-3.13l2.02 -6.4 10.13 -0.02 2.47 6.85c-3.66,1.43 -3.4,-0.33 -3.74,2.7l14.65 0c-0.44,-3.85 -2.3,0.06 -4.75,-6.08l-10.54 -23.21 -3.08 0.06 -9.74 22.79c-2.44,6.22 -4.59,2.79 -5.02,6.44l0 0z"/>
  <path class="fil0" d="M362.33 343.26l-2.55 0 0.03 7.48c5.11,4.2 18.16,2.97 21.2,-4.73 5.33,-13.51 -12.59,-11.02 -14.72,-13.71 -1.19,-3.05 -1.52,-5.79 1.97,-7.32 3.79,-1.67 5.18,-0.18 8.6,1.2l0.12 4.35 2.54 0c0,-3.26 0.4,-4.29 0.64,-7 -24.93,-5.96 -23.01,12.65 -15.49,15.49 2.72,1.03 6.73,0.98 8.84,1.98 4.7,2.23 2.45,11.97 -6.76,9.34 -4.57,-1.31 -4.42,-2.75 -4.42,-7.07l-0 0z"/>
  <path class="fil0" d="M520.89 343.26l-2.55 0 0.03 7.48c5.11,4.2 18.16,2.97 21.2,-4.73 1.39,-3.52 1.1,-8.39 -2.76,-10.39 -3.41,-1.78 -8.51,-0.94 -11.96,-3.31 -1.19,-3.06 -1.52,-5.79 1.97,-7.32 3.79,-1.67 5.18,-0.18 8.61,1.2l0.12 4.35 2.54 0c0,-3.26 0.39,-4.29 0.63,-7.01 -24.93,-5.96 -23,12.65 -15.49,15.49 2.72,1.03 6.73,0.98 8.84,1.99 4.7,2.23 2.45,11.97 -6.76,9.33 -4.57,-1.3 -4.42,-2.75 -4.42,-7.07l0 0z"/>
  <path class="fil0" d="M331.77 326.7l0 21.02c-1.09,3.97 -2.15,-0.13 -2.55,4.46l22.29 0 0.63 -6.37c-3.09,0.07 -2.61,-0.02 -3.29,3.71 -6.29,0.94 -4.61,0.99 -10.32,0.51 -0.78,-4.75 -0.44,-6.79 -0.4,-11.86 14.61,0 3.96,3.12 10.19,3.82l0 -8.92c-6.5,0.75 4.96,3.19 -10.19,3.19l0.24 -11.06c4.48,-0.74 10.49,-1.61 10.59,3.42l1.91 0 0.72 -5.72 -23.65 -0.01c0.49,4.26 2.33,0.26 3.82,3.82z"/>
  <path class="fil0" d="M490.96 326.7l0 21.02c-1.09,3.97 -2.15,-0.13 -2.55,4.46l22.29 0 0.64 -6.37c-3.09,0.07 -2.62,-0.02 -3.3,3.71 -6.29,0.94 -4.61,0.99 -10.32,0.51 -0.78,-4.75 -0.44,-6.79 -0.4,-11.86 14.61,0 3.96,3.12 10.19,3.82l0 -8.92c-6.5,0.75 4.96,3.19 -10.19,3.19l0.24 -11.06c4.48,-0.74 10.49,-1.61 10.59,3.42l1.91 0 0.72 -5.72 -23.65 -0.01c0.49,4.26 2.33,0.26 3.82,3.82z"/>
  <path class="fil0" d="M387.17 329.88l2.55 0c-0,-2.26 -0.36,-2.17 0.58,-3.87l7.06 -0.58 -0.04 24.09c-3.73,1.33 -3.44,-0.34 -3.78,2.66l14.65 0c-0.52,-4.5 -3.82,0.17 -3.82,-5.09l0 -21.65 7.06 0.58c0.94,1.7 0.59,1.61 0.58,3.87l2.55 0c0,-3.78 -0.43,-4.7 0.63,-7 -6.84,0 -13.04,1.04 -18.46,0.63 -5.19,-0.38 -2.04,-0.83 -9.55,-0.63l0 7 0 0z"/>
  <path class="fil0" d="M452.75 329.88l2.55 0c-0,-2.26 -0.36,-2.17 0.58,-3.87l7.06 -0.58 -0.04 24.09c-3.73,1.33 -3.44,-0.34 -3.78,2.66l14.65 0c-0.52,-4.5 -3.82,0.17 -3.82,-5.09l0 -21.65 7.06 0.58c0.94,1.7 0.59,1.61 0.58,3.87l2.55 0c0,-3.78 -0.43,-4.7 0.64,-7 -6.84,0 -13.04,1.04 -18.47,0.63 -5.18,-0.38 -2.04,-0.83 -9.55,-0.63l0 7 0 0z"/>
  <path class="fil0" d="M506.88 140.76c-9.98,4.29 -3.33,18.15 6.59,14.24 9.18,-3.62 3.85,-18.73 -6.59,-14.24z"/>
 </g>
</svg>
