<?xml version="1.0" encoding="UTF-8"?>
<!DOCTYPE svg PUBLIC "-//W3C//DTD SVG 1.1//EN" "http://www.w3.org/Graphics/SVG/1.1/DTD/svg11.dtd">
<!-- Creator: CorelDRAW -->
<svg xmlns="http://www.w3.org/2000/svg" xml:space="preserve" width="8.5in" height="11in" version="1.1" style="shape-rendering:geometricPrecision; text-rendering:geometricPrecision; image-rendering:optimizeQuality; fill-rule:evenodd; clip-rule:evenodd"
viewBox="0 0 8500 11000"
 xmlns:xlink="http://www.w3.org/1999/xlink"
 xmlns:xodm="http://www.corel.com/coreldraw/odm/2003">
 <defs>
  <style type="text/css">
   <![CDATA[
    .fil0 {fill:#013659}
   ]]>
  </style>
 </defs>
 <g id="Layer_x0020_1">
  <metadata id="CorelCorpID_0Corel-Layer"/>
  <path class="fil0" d="M3080.21 4835.11c56.21,0 66.67,6.77 66.67,80l0 260 -10 90c-34.01,8.19 -21.7,6.67 -56.67,6.67l0 20 60 0c17.82,-1.31 21.38,-5.59 46.67,-3.33 34.16,3.04 12.07,4.24 56.67,3.33l0 -20c-18.61,-4.48 -19.64,-1.19 -56.67,-10 -4.06,-45.62 -6.68,-19.01 -6.67,-83.33l0 -280c14.82,9.7 230.64,281.24 267.44,322.56 40.81,45.81 50.24,77.38 119.22,77.44 0,-31.43 -3.33,-39.94 -3.33,-53.33l0 -70c0,-16.81 -3.33,-21.15 -3.33,-36.67l3.96 -166.58c6.52,-116.08 -27.45,-136.75 62.7,-136.75l0 -20c-33.44,0 -76.27,5.04 -96.67,3.33 -40.32,-3.39 -17.89,-4.06 -70,-3.33l0 20c66.09,15.76 67.08,-13.7 66.66,100.01 -0.08,21.45 2.9,34.79 3.45,53.22 2.18,72.96 -0.11,150.01 -0.11,223.44 -20.57,-13.5 -65.97,-73.77 -84.37,-95.63l-245.51 -301.15c-19.45,0.22 -33.13,3.19 -50.13,3.68l-70 -3.56 0 20z"/>
  <path class="fil0" d="M3939.85 4418.8c1.77,72 -103.65,197.98 -157.3,143.97 -21.43,-21.57 -32.52,-113.48 82.39,-136.28 17.91,-3.56 55.96,-8.54 74.92,-7.69zm-133.04 -73.62c-3.22,-12.55 -33.5,-50.69 -12.03,-85.5 12.54,-20.34 36.67,-23.89 57.75,-25.63 36.09,-2.97 74.05,12.91 88.74,50 12.92,32.61 2.29,73.31 2.28,107.73 -52.55,0.02 -131.95,11.86 -177.37,39.3 -145.51,87.91 -46.88,252.46 69.67,189.67 22.07,-11.89 44.07,-30.43 59.65,-50.35 14.24,-18.22 33.33,-52.87 44.72,-65.28 0,51.46 -1.68,96.83 53.29,120.04 35.54,15.01 110.17,-1.06 126.08,-35.16l-6.81 -11.13c-30.44,4.33 -60.7,36.94 -93.21,-6.44 -48.06,-64.13 38.24,-277.91 -35.05,-348.28 -68.56,-65.84 -263.63,-3.44 -261.29,87.63 1.05,40.75 57.93,59.13 83.58,33.41z"/>
  <path class="fil0" d="M2758.05 4905.43l84.87 196.61 -166.04 -0.26 81.17 -196.35zm-241.17 386.35c29.26,0 52.07,-3.41 79.99,-3.37 28.58,0.04 50.78,3.37 80.01,3.37l0 -20c-70.13,-16.9 -77.43,19.22 -25.72,-112.39 4.24,-10.78 7.98,-22.14 15.72,-30.94l186.67 0c10.35,20.44 49.63,115.57 49.14,132.48 -14.29,11.3 -18.03,7.1 -35.9,7.44 -25.64,0.49 -23.25,2.79 -23.25,23.42 15.52,0 31.33,0.33 46.8,0.13 17.07,-0.21 25.23,-3.54 43.09,-3.58 32.9,-0.09 59.91,3.45 93.44,3.45l0 -20c-52.27,-12.59 -36.26,6.7 -80.09,-93.24 -49.59,-113.07 -102.34,-245.78 -152.03,-354.64l-7.88 -15.46 -22.53 0.28c-9.62,13.3 -44.32,103.66 -54.23,126.3l-112.28 254.39c-8.42,19.72 -20.23,40.66 -29.71,60.29 -8.38,17.34 -8.5,17.04 -27.7,18.96 -26.94,2.7 -23.55,-0.37 -23.55,23.11z"/>
  <path class="fil0" d="M5484.72 4905.43l84.87 196.61 -166.05 -0.26 81.17 -196.35zm-241.17 386.35c29.26,0 52.07,-3.41 79.99,-3.37 28.58,0.04 50.78,3.37 80.01,3.37l0 -20c-70.13,-16.9 -77.42,19.22 -25.72,-112.39l10.15 -23.18c4.04,-6.73 2.49,-4.27 5.57,-7.76l186.67 0c10.35,20.44 49.63,115.57 49.14,132.48 -30.3,23.96 -59.14,-15.85 -59.14,30.86l89.89 -3.45c32.9,-0.09 59.91,3.45 93.45,3.45l0 -20c-52.27,-12.59 -36.27,6.7 -80.09,-93.24l-158.7 -367.97c-0.24,-0.45 -0.75,-1.45 -1.2,-2.13l-22.53 0.28c-9.62,13.3 -44.32,103.66 -54.23,126.3 -47.61,108.75 -90.41,207.89 -141.99,314.68 -21.59,44.7 -51.26,-7.75 -51.26,42.08z"/>
  <path class="fil0" d="M4197.24 4384.74c-1.6,-36.19 21.35,-87.96 42.85,-116.42 48.92,-64.75 149.58,-32.73 128.78,45.43 -13.97,52.52 -134.12,72.74 -171.63,70.99zm-3.26 31.53c19.02,-12.81 146.96,-13.94 209.56,-57.83 68.63,-48.13 59.62,-129.26 -19.51,-153.82 -66.35,-20.59 -149.2,8 -192.39,61.92 -49.12,61.31 -69.71,119.58 -68.22,198.76 3.07,164.04 191.57,228.53 299.3,105.65 9.25,-10.56 29.62,-27.47 13.7,-38.84 -20.67,-14.75 -53.94,66.35 -141.16,47.91 -76.96,-16.27 -108.14,-122.41 -101.26,-163.74z"/>
  <path class="fil0" d="M3680.66 4845.04l-0.45 80.07 23.33 0c1.26,-14.16 4.11,-66.32 15.81,-74.19 9.38,-6.31 109.23,-5.81 124.19,-5.81 0,34.6 2.49,31.19 3.97,56.58l-0.63 280.09c0,14.67 -2.66,16.24 -3.34,29.99 -0.54,10.86 0.94,21.91 -0.68,32.65 -4.96,32.76 -29.77,27.35 -65.98,27.35l0 20c37.43,0 97.76,-5.39 123.33,-3.33 44.59,3.59 24.88,3.96 80,3.33l0 -20c-67.47,0 -66.67,0.24 -66.67,-63.33 0,-16.8 -3.33,-21.14 -3.33,-36.67l4.35 -324.33c49.37,-7.18 53.75,1.85 98.99,1 46.8,-0.88 23.48,21.94 36.67,76.67l23.33 0 0 -46.67c0,-17.13 6.3,-45.77 6.67,-63.33l-130.11 -0.11c-17.34,0.02 -24.51,3.44 -39.89,3.44l-53.33 0c-15.38,0 -22.54,-3.42 -39.89,-3.44l-140.12 0.11 3.78 29.93z"/>
  <path class="fil0" d="M4806.88 4835.11c71.63,0 66.67,-2.19 66.67,73.33 0,16.81 3.33,21.15 3.33,36.67l0 210c-2.19,36.76 -3.78,18.83 -3.33,66.67 0,13.72 -0.45,30.33 -10.7,39.3 -19.7,17.25 -22.63,-2.19 -22.63,30.7l53.33 0c24.7,-1.82 32.01,-6.41 70,-3.33l26.56 3.94c15.41,1.11 184.28,1.88 193.44,-7.28 2.96,-6.43 13.36,-104.57 13.33,-116.67l-23.33 0 -24.3 79.03 -20.89 5.78c-31.26,5.5 -120.31,10.58 -148.14,8.53 -19.54,-1.44 -13.63,-4.53 -40,-3.33 0,-41 -4.46,-400.06 5.58,-414.41 8.33,-11.91 50.21,-8.92 64.42,-8.92l0 -20c-52.36,0 -39.32,1.5 -76.56,3.94 -28.67,1.88 -45.52,-3.32 -63.33,-4.55l-63.44 0.61 0 20z"/>
  <path class="fil0" d="M4383.54 4835.11c71.63,0 66.67,-2.19 66.67,73.33 0,16.81 3.33,21.15 3.33,36.67l0 210c-2.19,36.76 -3.78,18.83 -3.33,66.67 0,13.72 -0.45,30.33 -10.7,39.3 -19.7,17.25 -22.63,-2.19 -22.63,30.7l53.33 0c24.7,-1.82 32.01,-6.41 70,-3.33l26.56 3.94c15.41,1.11 184.28,1.88 193.44,-7.28 2.96,-6.43 13.35,-104.57 13.33,-116.67l-23.33 0 -19.29 76.63c-1.62,0.24 -2.65,0.14 -2.97,1.1 -1.6,4.79 -48.12,11.46 -51.52,11.82l-119.56 3.78c-19.54,-1.44 -13.63,-4.53 -40,-3.33 0,-41 -4.46,-400.06 5.58,-414.41 8.33,-11.91 50.22,-8.92 64.42,-8.92l0 -20c-52.36,0 -39.32,1.5 -76.56,3.94 -28.67,1.88 -45.52,-3.32 -63.33,-4.55l-63.44 0.61 0 20z"/>
  <path class="fil0" d="M4133.54 4835.11c15.06,0 27.37,-1.11 41.01,2.32 15,3.78 19.29,7.16 23.26,47.52 1.06,10.78 3.44,354.23 -7.42,373.67 -8.17,14.61 -41.08,13.15 -56.85,13.15l0 20c41.32,0 95.17,-5.84 126.67,-3.33 37.9,3.02 15.2,4.12 66.67,3.33l0 -20c-16.59,0 -50.88,1.92 -57.97,-15.37 -7.91,-19.3 -9.81,-387.38 -0.02,-409.29 6.6,-14.77 41.33,-12.01 57.99,-12.01l0 -20c-42.51,0 -73.68,6.49 -113.33,3.33 -44.47,-3.54 -24.79,-3.96 -80,-3.33l0 20z"/>
  <path class="fil0" d="M4126.02 5549.3l21.63 48.83 -44.11 0.32 22.48 -49.15zm-75.81 109.15l56.67 0c-1.8,-16.07 -3.59,-8.32 -16.95,-16.38l10.6 -33.51 53.02 -0.11 12.95 35.85c-19.17,7.48 -17.82,-1.74 -19.61,14.15l76.67 0c-2.32,-20.15 -12.04,0.33 -24.85,-31.81l-55.15 -121.52 -16.11 0.31 -50.97 119.28c-12.77,32.59 -24.05,14.61 -26.26,33.74z"/>
  <path class="fil0" d="M3760.21 5611.78l-13.33 0 0.15 39.15c26.76,21.96 95.06,15.53 110.98,-24.77 27.94,-70.73 -65.92,-57.67 -77.08,-71.76 -6.23,-15.98 -7.93,-30.29 10.33,-38.32 19.83,-8.72 27.11,-0.93 45.04,6.28l0.64 22.76 13.27 0c0,-17.08 2.07,-22.46 3.33,-36.67 -130.5,-31.21 -120.43,66.2 -81.1,81.1 14.22,5.39 35.22,5.15 46.27,10.4 24.6,11.67 12.84,62.65 -35.37,48.87 -23.92,-6.84 -23.12,-14.4 -23.13,-37.04z"/>
  <path class="fil0" d="M4590.21 5611.78l-13.33 0 0.15 39.15c26.77,21.96 95.06,15.53 110.98,-24.77 7.29,-18.44 5.75,-43.91 -14.44,-54.41 -17.87,-9.29 -44.56,-4.92 -62.64,-17.36 -6.23,-15.98 -7.94,-30.29 10.33,-38.32 19.83,-8.72 27.11,-0.93 45.05,6.28l0.63 22.76 13.27 0c0,-17.08 2.07,-22.46 3.33,-36.67 -130.5,-31.21 -120.43,66.2 -81.1,81.1 14.22,5.39 35.21,5.15 46.27,10.4 24.6,11.67 12.84,62.65 -35.37,48.87 -23.91,-6.84 -23.12,-14.4 -23.13,-37.04z"/>
  <path class="fil0" d="M3600.21 5525.11l0 110c-5.72,20.79 -11.22,-0.64 -13.33,23.33l116.67 0 3.33 -33.33c-16.19,0.36 -13.69,-0.11 -17.24,19.43 -32.93,4.94 -24.13,5.2 -54.02,2.66 -4.09,-24.89 -2.33,-35.53 -2.08,-62.09 76.5,0 20.76,16.32 53.33,20l0 -46.67c-34.01,3.92 25.98,16.67 -53.33,16.67l1.24 -57.92c23.47,-3.86 54.92,-8.45 55.43,17.92l10 0 3.77 -29.93 -123.77 -0.07c2.56,22.28 12.22,1.37 20,20z"/>
  <path class="fil0" d="M4433.54 5525.11l0 110c-5.72,20.79 -11.22,-0.64 -13.33,23.33l116.67 0 3.33 -33.33c-16.18,0.36 -13.69,-0.11 -17.24,19.43 -32.93,4.94 -24.13,5.2 -54.02,2.66 -4.09,-24.89 -2.33,-35.53 -2.08,-62.09 76.5,0 20.76,16.32 53.33,20l0 -46.67c-34.01,3.92 25.98,16.67 -53.33,16.67l1.24 -57.92c23.47,-3.86 54.92,-8.45 55.43,17.92l10 0 3.77 -29.93 -123.77 -0.07c2.56,22.28 12.22,1.37 20,20z"/>
  <path class="fil0" d="M3890.21 5541.78l13.33 0c-0.02,-11.84 -1.88,-11.36 3.05,-20.28l36.95 -3.05 -0.2 126.1c-19.54,6.94 -18.03,-1.8 -19.8,13.9l76.67 0c-2.72,-23.56 -20,0.88 -20,-26.67l0 -113.33 36.95 3.05c4.93,8.92 3.07,8.44 3.05,20.28l13.33 0c0,-19.79 -2.23,-24.59 3.33,-36.67 -35.81,0 -68.25,5.43 -96.67,3.33 -27.13,-2 -10.66,-4.36 -50,-3.33l0 36.67z"/>
  <path class="fil0" d="M4233.54 5541.78l13.33 0c-0.02,-11.84 -1.88,-11.36 3.05,-20.28l36.95 -3.05 -0.2 126.1c-19.54,6.94 -18.03,-1.8 -19.8,13.9l76.67 0c-2.72,-23.56 -20,0.88 -20,-26.67l0 -113.33 36.95 3.05c4.93,8.92 3.07,8.44 3.05,20.28l13.33 0c0,-19.79 -2.23,-24.59 3.33,-36.67 -35.81,0 -68.24,5.43 -96.67,3.33 -27.13,-2 -10.66,-4.36 -50,-3.33l0 36.67z"/>
  <path class="fil0" d="M4516.88 4551.78c-52.21,22.47 -17.43,94.99 34.5,74.52 48.04,-18.93 20.17,-98.05 -34.5,-74.52z"/>
 </g>
</svg>
